<svg xmlns="http://www.w3.org/2000/svg" version="1.0" width="2560.000000pt" height="1588.000000pt" viewBox="0 0 2560.000000 1588.000000" preserveAspectRatio="xMidYMid meet">

<g transform="translate(0.000000,1588.000000) scale(0.100000,-0.100000)" fill="#cf1414" stroke="none">
<path d="M9800 12520 l0 -3360 1135 0 1135 0 0 1120 0 1120 2270 0 2270 0 0 1120 0 1120 -2270 0 -2270 0 0 1120 0 1120 -1135 0 -1135 0 0 -3360z" fill="#cf1414"/>
<path d="M9802 7563 l3 -1118 3403 -3 3402 -2 0 1120 0 1120 -3405 0 -3405 0 2 -1117z" fill="#cf1414"/>
<path d="M1820 1567 l0 -1457 155 0 155 0 2 1050 3 1050 975 -1056 c536 -580 994 -1076 1017 -1102 l42 -47 1 1453 0 1452 -150 0 -150 0 0 -1055 c0 -580 -4 -1055 -8 -1055 -7 0 -431 459 -752 815 -36 39 -131 143 -211 231 -80 87 -340 373 -579 634 -238 261 -448 491 -466 510 l-34 35 0 -1458z" fill="#cf1414"/>
<path d="M20985 2990 c-374 -37 -683 -189 -939 -461 -187 -199 -298 -412 -357 -689 -20 -91 -23 -135 -23 -325 -1 -206 1 -227 27 -338 33 -139 62 -220 123 -341 196 -391 582 -676 1044 -773 65 -13 130 -17 270 -17 161 0 201 4 314 28 198 41 368 110 544 219 l82 52 0 225 -1 225 -36 -43 c-49 -57 -182 -169 -270 -226 -434 -280 -1022 -222 -1400 137 -250 237 -362 524 -350 892 5 157 20 246 62 371 108 323 378 588 711 700 122 41 218 56 359 56 327 -1 599 -112 843 -346 l82 -79 0 219 0 219 -82 52 c-184 114 -391 196 -578 227 -117 19 -318 27 -425 16z" fill="#cf1414"/>
<path d="M11260 1525 l0 -1415 170 0 170 0 0 670 0 670 24 0 c20 0 113 -112 551 -670 l526 -670 215 0 c117 0 214 3 214 8 -1 4 -245 304 -544 667 -520 631 -543 660 -517 666 14 4 53 7 86 8 281 6 519 139 616 346 54 114 64 174 64 365 0 151 -3 186 -23 252 -74 257 -214 410 -437 477 -111 33 -249 41 -696 41 l-419 0 0 -1415z m917 1107 c217 -47 307 -147 336 -374 8 -65 8 -111 0 -178 -20 -158 -81 -254 -192 -303 -105 -47 -186 -58 -463 -64 l-258 -5 0 477 0 478 243 -6 c186 -4 263 -10 334 -25z" fill="#cf1414"/>
<path d="M23410 1525 l0 -1415 170 0 170 0 0 700 0 700 755 0 755 0 0 -700 0 -700 170 0 170 0 0 1415 0 1415 -170 0 -170 0 0 -545 0 -545 -755 0 -755 0 0 545 0 545 -170 0 -170 0 0 -1415z" fill="#cf1414"/>
<path d="M0 1510 l0 -1400 170 0 170 0 0 1400 0 1400 -170 0 -170 0 0 -1400z" fill="#cf1414"/>
<path d="M5350 2755 l0 -155 390 0 390 0 0 -1245 0 -1245 170 0 170 0 0 1245 0 1245 405 0 405 0 0 155 0 155 -965 0 -965 0 0 -155z" fill="#cf1414"/>
<path d="M8430 1510 l0 -1400 743 2 742 3 0 165 0 165 -572 3 -573 2 0 530 0 530 573 2 572 3 3 153 3 152 -576 0 -575 0 0 405 0 405 573 2 572 3 3 138 3 137 -746 0 -745 0 0 -1400z" fill="#cf1414"/>
<path d="M13862 2758 l3 -153 393 -3 392 -2 0 -1245 0 -1245 168 2 167 3 3 1242 2 1243 403 2 402 3 3 153 3 152 -971 0 -971 0 3 -152z" fill="#cf1414"/>
<path d="M16942 1513 l3 -1398 743 -3 742 -2 0 170 0 170 -575 0 -575 0 0 530 0 530 575 0 575 0 0 155 0 155 -575 0 -575 0 0 405 0 405 575 0 575 0 0 140 0 140 -745 0 -745 0 2 -1397z" fill="#cf1414"/>
</g>
</svg>